# xmcd CD database file
#
# Track frame offsets:
#	150
#	16319
#	29484
#
# Disc length: 561 seconds
#
# Revision: 0
# Processed by: cddbd v1.5.2PL0 Copyright (c) Steve Scherf et al.
# Submitted via: CDex 1.51
#
DISCID=1b022f03
DTITLE=Caomhe - Demo
DYEAR=1900
DGENRE=Country
TTITLE0=Tonight
TTITLE1=Torn Jeans
TTITLE2=Hey Stephen
EXTD=
EXTT0=
EXTT1=
EXTT2=
PLAYORDER=
